# xmcd
#
# Track frame offsets:
# 150
# 18720
# 36655
# 54592
# 72668
# 89717
# 105178
# 125198
# 143519
# 160435
# 176368
# 191082
# 214795
#
# Disc length: 3100 seconds
#
# Revision: 0
# Processed by: cddbd v1.5.2PL0 Copyright (c) Steve Scherf et al.
# Submitted via: Axialis_AX_CDPlayer 2.6
#
DISCID=c70c1a0d
DTITLE=Billy Ray Cyrus - Home At Last
DYEAR=1900
DGENRE=
TTITLE0=Ready, Set, Don't Go
TTITLE1=Beginning
TTITLE2=Buffalo
TTITLE3=Flying By
TTITLE4=Brown Eyed Girl
TTITLE5=Don't Give Up On Me
TTITLE6=You've Got A Friend
TTITLE7=You Can't Lose Me
TTITLE8=Can't Live Without Your Love
TTITLE9=My Everything
TTITLE10=Put A Little Love In Your Heart
TTITLE11=Over The Rainbow
TTITLE12=Stand (Bonus Track)
EXTD=www.brcspirit.com
EXTT0=
EXTT1=
EXTT2=
EXTT3=
EXTT4=
EXTT5=
EXTT6=
EXTT7=
EXTT8=
EXTT9=
EXTT10=
EXTT11=
EXTT12=
PLAYORDER=
